<svg width="104" height="104" viewBox="0 0 104 104" fill="none" xmlns="http://www.w3.org/2000/svg">
<path fill-rule="evenodd" clip-rule="evenodd" d="M51.9889 101.944C28.6318 102.114 9.39375 83.1532 9.22311 59.6745C9.05335 36.3175 28.0138 17.0794 51.3709 16.9096C51.6142 16.908 51.7358 16.9077 51.9791 16.9058L51.9889 101.944Z" stroke="#8BB4D9" stroke-width="3.5"/>
<path fill-rule="evenodd" clip-rule="evenodd" d="M51.9315 101.994C32.952 101.896 17.2616 86.444 17.1155 67.3448C16.9685 48.124 32.6622 32.1884 51.8831 32.0414L51.9315 101.994Z" stroke="#8BB4D9" stroke-width="3.5"/>
<path d="M52 102C79.6142 102 102 79.6143 102 52C102 24.3858 79.6142 2 52 2C24.3858 2 2 24.3858 2 52C2 79.6143 24.3858 102 52 102Z" stroke="#8BB4D9" stroke-width="3.5"/>
</svg>
