<svg xmlns="http://www.w3.org/2000/svg" width="512" height="512"><switch><g><path fill="#F36B2A" d="M506 256.879c0 138.066-111.934 250-250 250-138.067 0-250-111.934-250-250 0-138.067 111.933-250 250-250 138.066 0 250 111.933 250 250zm0 0"/><path fill="#F2F2F2" d="M80.462 313.629c-.13.805-.721 1.393-1.46 1.393-.759 0-1.325-.588-1.455-1.414l-2.633-19.78 2.633-20.101c.106-.832.696-1.42 1.455-1.42.74 0 1.33.588 1.46 1.42l3.136 20.122-3.136 19.78zm13.445 12.012c-.103.87-.74 1.458-1.521 1.458-.74 0-1.393-.588-1.504-1.458l-3.542-31.813 3.542-32.531c.111-.826.764-1.458 1.504-1.458.781 0 1.417.609 1.521 1.458l4.05 32.531-4.05 31.813zm14.542 5.396c-.112 1.022-.876 1.763-1.812 1.763-.952 0-1.716-.74-1.828-1.763l-3.37-37.188 3.37-38.58c.09-1.042.876-1.806 1.828-1.806.936 0 1.7.765 1.812 1.806l3.827 38.58-3.827 37.188zm14.663 1.18c-.108 1.17-1.022 2.09-2.129 2.09-1.132 0-2.051-.92-2.135-2.09l-3.196-38.368 3.196-39.644c.084-1.199 1.003-2.089 2.135-2.089 1.107 0 2.021.89 2.129 2.089l3.612 39.644-3.612 38.368zm14.753.3c-.065 1.371-1.153 2.394-2.416 2.394-1.305 0-2.35-1.022-2.437-2.394l-3.024-38.668 3.024-36.773c.087-1.371 1.132-2.391 2.437-2.391 1.284 0 2.35 1.02 2.416 2.366l3.417 36.799-3.417 38.667zm14.884.021v-.021c-.087 1.523-1.284 2.726-2.742 2.726s-2.655-1.202-2.742-2.704l-2.807-38.667 2.807-59.837c.087-1.526 1.284-2.723 2.742-2.723s2.676 1.197 2.742 2.701l3.199 59.859-3.199 38.666zm14.797-.021v-.021c-.087 1.697-1.436 3.024-3.068 3.024-1.632 0-2.959-1.327-3.046-3.024l-2.655-38.406 2.655-73.546c.087-1.678 1.415-3.024 3.046-3.024 1.632 0 2.981 1.346 3.068 3.024l2.981 73.546-2.981 38.427zm15.341-.588v-.021c-.087 1.871-1.545 3.335-3.373 3.335-1.806 0-3.286-1.464-3.351-3.313l-2.458-38.036 2.458-79.685c.065-1.85 1.545-3.332 3.351-3.332 1.828 0 3.308 1.482 3.373 3.332l2.785 79.685-2.785 38.035zm15.232-.261c-.065 2.045-1.676 3.655-3.656 3.655-2.002 0-3.59-1.61-3.677-3.634l-2.285-37.797 2.285-82.342c.087-2.067 1.675-3.653 3.677-3.653 1.98 0 3.59 1.585 3.656 3.653l2.546 82.342-2.546 37.776zm15.34-.326v-.022c-.065 2.198-1.785 3.961-3.982 3.961-2.154 0-3.917-1.763-3.96-3.938l-2.111-37.449 2.089-80.231c.065-2.239 1.828-3.982 3.982-3.982 2.198 0 3.917 1.744 3.982 3.982l2.372 80.231-2.372 37.448zm15.472-.218v-.044c-.043 2.416-1.937 4.266-4.265 4.266-2.372 0-4.243-1.85-4.308-4.222l-1.915-37.231 1.915-77.311c.065-2.396 1.937-4.268 4.308-4.268 2.329 0 4.243 1.872 4.265 4.268l2.176 77.338-2.176 37.204zm15.776-3.938-.175 3.655c-.043 1.263-.565 2.415-1.393 3.242s-1.979 1.327-3.198 1.327c-1.415 0-2.655-.631-3.525-1.675a4.49 4.49 0 0 1-1.066-2.698v-.175s-1.763-36.926-1.763-36.991l1.741-91.109.021-.87c0-1.588.849-3.003 2.111-3.827.718-.479 1.545-.74 2.48-.74s1.806.277 2.523.778a4.636 4.636 0 0 1 2.067 3.789l1.937 92.028-1.76 33.266zm15.34 3.181v-.049c-.021 2.677-2.241 4.875-4.896 4.875-2.677 0-4.874-2.198-4.918-4.853l-1.001-17.974-1.001-18.431 2.002-99.854v-.503a4.959 4.959 0 0 1 1.828-3.786 4.883 4.883 0 0 1 3.09-1.11 4.91 4.91 0 0 1 2.502.696c1.393.871 2.372 2.418 2.416 4.178l2.176 100.379-2.198 36.432zm132.497 4.935H269.056c-2.676-.283-4.766-2.394-4.809-5.136V188.789c.043-2.584.936-3.938 4.286-5.219a79.372 79.372 0 0 1 28.506-5.332c41.062 0 74.724 31.487 78.292 71.631a44.485 44.485 0 0 1 17.213-3.457c24.589 0 44.542 19.932 44.542 44.542s-19.953 44.348-44.542 44.348zm0 0"/></g></switch></svg>