<svg width="50" height="50" viewBox="0 0 50 50" fill="none" xmlns="http://www.w3.org/2000/svg">
<path fill-rule="evenodd" clip-rule="evenodd" d="M50 25C50 38.8071 38.8071 50 25 50C11.1929 50 0 38.8071 0 25C0 11.1929 11.1929 0 25 0C38.8071 0 50 11.1929 50 25ZM7.30017 30.8144C7.37549 30.8144 7.43342 30.7565 7.44545 30.6753L7.76008 28.698L7.44545 26.685C7.43298 26.6012 7.37504 26.5433 7.30017 26.5433C7.22441 26.5433 7.16648 26.6012 7.15534 26.685L6.89107 28.6958L7.15534 30.6736C7.16692 30.7565 7.22486 30.8144 7.30017 30.8144ZM8.63979 32.023C8.71689 32.023 8.77928 31.9628 8.79176 31.8768L9.19641 28.6953L8.79176 25.4425C8.77928 25.3574 8.71689 25.2964 8.63979 25.2964C8.56492 25.2964 8.49986 25.3588 8.48916 25.4425L8.13354 28.6953L8.48916 31.8768C8.49941 31.9628 8.56492 32.023 8.63979 32.023ZM10.0636 32.5925C10.1568 32.5925 10.2343 32.519 10.2446 32.4156L10.6274 28.698L10.2446 24.8391C10.2339 24.7344 10.1568 24.6595 10.0636 24.6595C9.96738 24.6595 9.89028 24.7344 9.88182 24.8391L9.54446 28.698L9.88182 32.4156C9.89117 32.519 9.96738 32.5925 10.0636 32.5925ZM11.6453 32.6792C11.6848 32.6407 11.7085 32.5888 11.7116 32.5337L12.0731 28.698L11.7116 24.7331C11.701 24.6136 11.6083 24.5241 11.4982 24.5241C11.4426 24.5251 11.3895 24.5473 11.3497 24.5862C11.3098 24.625 11.2863 24.6775 11.2838 24.7331L10.9652 28.698L11.2838 32.5337C11.2865 32.5891 11.3102 32.6414 11.35 32.68C11.3898 32.7187 11.4427 32.7408 11.4982 32.7418C11.5533 32.74 11.6058 32.7177 11.6453 32.6792ZM13.1138 32.7329C13.1589 32.6882 13.185 32.6279 13.1867 32.5644L13.5281 28.6976L13.1867 25.0174C13.1792 24.8824 13.074 24.7803 12.9448 24.7803C12.8137 24.7803 12.7103 24.8824 12.701 25.0192L12.3997 28.6976L12.701 32.5644C12.7099 32.7022 12.8137 32.8042 12.9448 32.8042C13.0082 32.8031 13.0688 32.7775 13.1138 32.7329ZM14.6761 32.5644V32.5667L14.9947 28.6998L14.6761 22.7129C14.6676 22.5632 14.5469 22.4424 14.4011 22.4424C14.2554 22.4424 14.1346 22.5628 14.1262 22.7152L13.845 28.6998L14.1262 32.5667C14.1292 32.6382 14.1593 32.7059 14.2103 32.7561C14.2614 32.8064 14.3296 32.8353 14.4011 32.8372C14.5464 32.8372 14.6672 32.7169 14.6761 32.5644ZM16.1543 32.5622V32.5644L16.4534 28.7203L16.1543 21.3666C16.1517 21.2865 16.1183 21.2105 16.0612 21.1543C16.004 21.0982 15.9274 21.0661 15.8473 21.0649C15.6855 21.0649 15.5518 21.1982 15.5438 21.3666L15.2782 28.7203L15.5438 32.5622C15.5518 32.7307 15.6855 32.8648 15.8473 32.8648C15.9275 32.8634 16.0041 32.8312 16.0612 32.7748C16.1184 32.7185 16.1517 32.6424 16.1543 32.5622ZM17.5878 32.7379C17.6505 32.6756 17.6864 32.5913 17.6878 32.5029V32.5052L17.9663 28.7025L17.6878 20.7338C17.6816 20.5484 17.5336 20.4 17.3522 20.4C17.264 20.4015 17.1798 20.4371 17.1172 20.4993C17.0546 20.5615 17.0186 20.6456 17.0167 20.7338L16.7702 28.7025L17.0167 32.5052C17.0186 32.5931 17.0547 32.6769 17.1174 32.7387C17.18 32.8005 17.2642 32.8355 17.3522 32.8363C17.4406 32.8355 17.5251 32.8002 17.5878 32.7379ZM19.1033 32.7363C19.1717 32.6683 19.2109 32.5763 19.2124 32.4798L19.4677 28.7016L19.2124 20.4669C19.2057 20.2619 19.0452 20.1023 18.846 20.1023C18.7494 20.1031 18.6569 20.1417 18.5884 20.2099C18.5198 20.278 18.4807 20.3702 18.4793 20.4669L18.2493 28.7016L18.4793 32.4816C18.4812 32.5778 18.5207 32.6695 18.5891 32.7371C18.6576 32.8048 18.7498 32.8431 18.846 32.8439C18.9425 32.8429 19.0348 32.8044 19.1033 32.7363ZM20.6283 32.7233C20.7028 32.6494 20.7453 32.5491 20.7467 32.4441V32.4464L20.9838 28.7025L20.7467 20.6781C20.7396 20.4544 20.5671 20.2815 20.3483 20.2815C20.2432 20.2822 20.1426 20.3241 20.0682 20.3983C19.9937 20.4725 19.9514 20.573 19.9504 20.6781L19.7413 28.7025L19.9526 32.4464C19.9539 32.5507 19.996 32.6504 20.07 32.724C20.144 32.7976 20.244 32.8392 20.3483 32.8399C20.4533 32.8392 20.5538 32.7973 20.6283 32.7233ZM22.169 32.7249C22.2484 32.6448 22.2932 32.5368 22.2936 32.4241L22.5102 28.7042L22.294 20.9713C22.2905 20.7316 22.1006 20.544 21.8662 20.544C21.7527 20.5444 21.6439 20.5895 21.5634 20.6695C21.4829 20.7494 21.437 20.8579 21.4357 20.9713L21.2445 28.702L21.4353 32.4241C21.4357 32.5379 21.4813 32.6469 21.5621 32.7271C21.6428 32.8073 21.7522 32.8521 21.866 32.8517C21.9798 32.8513 22.0888 32.8056 22.169 32.7249ZM23.8525 32.396L23.8716 32.0315L24.0463 28.7042L23.8529 19.5025C23.8507 19.3438 23.77 19.2052 23.6466 19.1228C23.5734 19.0718 23.4866 19.0442 23.3974 19.0434C23.3082 19.0427 23.221 19.069 23.147 19.1188C23.0204 19.2003 22.9358 19.3425 22.9344 19.502L22.9322 19.5894L22.7584 28.6998L22.9344 32.3987C22.9344 32.4049 22.9344 32.4107 22.9358 32.4152C22.9404 32.5151 22.978 32.6107 23.0427 32.687C23.1283 32.7895 23.2531 32.8546 23.3948 32.8546C23.5164 32.8546 23.6314 32.8024 23.7152 32.7209C23.8008 32.6341 23.85 32.5179 23.8525 32.396ZM25.4051 32.3439V32.3483L25.6244 28.7056L25.4073 18.6682C25.4029 18.4913 25.3053 18.3367 25.1658 18.2493C25.0927 18.2065 25.0071 18.1811 24.9149 18.1811C24.7853 18.1821 24.6613 18.2339 24.5696 18.3254C24.4779 18.417 24.4258 18.5409 24.4247 18.6705V18.7208L24.2241 28.706L24.3235 30.5501L24.4247 32.3461C24.4273 32.613 24.6475 32.8323 24.9149 32.8323C25.0442 32.8311 25.168 32.7794 25.2596 32.688C25.3512 32.5968 25.4035 32.4732 25.4051 32.3439ZM26.3058 32.8421H38.6556C41.1147 32.8421 43.1085 30.8688 43.1085 28.4083C43.1085 25.9475 41.1147 23.9527 38.6556 23.9527C38.0642 23.9531 37.4787 24.0708 36.9331 24.299C36.5762 20.2859 33.2111 17.1356 29.1044 17.1356C28.1294 17.137 27.1629 17.3177 26.2532 17.6686C25.918 17.7974 25.8285 17.9316 25.824 18.1918V32.3296C25.8285 32.6028 26.0393 32.8149 26.3058 32.8421Z" fill="#8BB4D9"/>
</svg>
